<svg width="32" height="32" viewBox="0 0 32 32" fill="none" xmlns="http://www.w3.org/2000/svg">
<path d="M12.053 6.71998L9.98003 4.64798C9.40291 4.07164 8.62064 3.74792 7.80503 3.74792C6.98941 3.74792 6.20714 4.07164 5.63003 4.64798L4.00003 6.27798C3.42369 6.85509 3.09998 7.63736 3.09998 8.45298C3.09998 9.26859 3.42369 10.0509 4.00003 10.628L6.37303 13C5.82576 14.7555 5.76913 16.6272 6.20926 18.4126C6.6494 20.198 7.56952 21.829 8.87003 23.129C10.17 24.4298 11.8011 25.3503 13.5867 25.7906C15.3723 26.2309 17.2443 26.1743 19 25.627L21.372 28C21.9491 28.5763 22.7314 28.9 23.547 28.9C24.3626 28.9 25.1449 28.5763 25.722 28L27.352 26.37C27.9284 25.7929 28.2521 25.0106 28.2521 24.195C28.2521 23.3794 27.9284 22.5971 27.352 22.02L25.279 19.947C26.0653 18.0967 26.2807 16.0536 25.8974 14.08C25.5141 12.1065 24.5497 10.2925 23.128 8.87098C21.7064 7.44945 19.8924 6.48524 17.9188 6.10215C15.9453 5.71905 13.9022 5.93455 12.052 6.72098L12.053 6.71998ZM8.49903 6.12798L10.155 7.78398C8.98217 8.62045 8.00076 9.69697 7.27603 10.942L5.48103 9.14698C5.29728 8.96255 5.19411 8.71282 5.19411 8.45248C5.19411 8.19214 5.29728 7.94241 5.48103 7.75798L7.11103 6.12798C7.29542 5.94453 7.54493 5.84156 7.80503 5.84156C8.06512 5.84156 8.31464 5.94453 8.49903 6.12798ZM24.216 21.845L25.872 23.501C26.0555 23.6854 26.1584 23.9349 26.1584 24.195C26.1584 24.4551 26.0555 24.7046 25.872 24.889L24.242 26.519C24.0576 26.7027 23.8079 26.8059 23.5475 26.8059C23.2872 26.8059 23.0375 26.7027 22.853 26.519L21.058 24.724C22.3031 23.9993 23.3796 23.0179 24.216 21.845Z" fill="#533566"/>
<path d="M24 24C19.582 28.418 12.418 28.418 8.00002 24C3.58202 19.582 3.58202 12.418 8.00002 8.00002C12.418 3.58202 19.582 3.58202 24 8.00002C28.418 12.418 28.418 19.582 24 24ZM22.058 22.058C22.8653 21.265 23.5074 20.3199 23.9474 19.2774C24.3874 18.2348 24.6165 17.1154 24.6215 15.9838C24.6265 14.8523 24.4073 13.7309 23.9765 12.6845C23.5457 11.6381 22.912 10.6874 22.1118 9.88725C21.3116 9.08713 20.3608 8.45344 19.3144 8.02277C18.268 7.5921 17.1466 7.37299 16.015 7.37808C14.8834 7.38317 13.764 7.61237 12.7215 8.05244C11.679 8.49251 10.734 9.13473 9.94102 9.94202C8.35795 11.5537 7.47547 13.7254 7.48563 15.9846C7.4958 18.2437 8.39779 20.4073 9.99531 22.0047C11.5928 23.6021 13.7566 24.5039 16.0157 24.5139C18.2748 24.5239 20.4465 23.6412 22.058 22.058Z" fill="#635994"/>
<path d="M16 22.893C16.764 22.893 17.583 23.228 18.285 23.01C19.002 22.776 19.455 22.012 20.062 21.575C20.67 21.139 21.528 20.935 21.972 20.335C22.409 19.743 22.332 18.854 22.565 18.137C22.791 17.443 23.376 16.78 23.376 16C23.376 15.236 22.791 14.558 22.566 13.864C22.331 13.146 22.401 12.265 21.973 11.664C21.536 11.057 20.671 10.862 20.063 10.425C19.47 9.98803 19.002 9.22503 18.285 8.99003C17.591 8.76403 16.78 9.10703 16 9.10703C15.236 9.10703 14.417 8.77203 13.715 8.99003C12.998 9.22403 12.545 9.98803 11.938 10.425C11.329 10.862 10.472 11.065 10.028 11.665C9.59102 12.257 9.66802 13.146 9.43502 13.864C9.20902 14.558 8.62402 15.22 8.62402 16C8.62402 16.764 9.20902 17.443 9.43402 18.137C9.66902 18.854 9.59802 19.735 10.027 20.335C10.464 20.943 11.329 21.138 11.937 21.575C12.53 22.012 12.998 22.775 13.715 23.01C14.425 23.236 15.235 22.893 16 22.893Z" fill="#FCD53F"/>
<path d="M15.26 12.28C15.3079 12.4395 15.2905 12.6115 15.2115 12.7582C15.1325 12.9048 14.9986 13.0141 14.839 13.062L12.547 13.748C12.3874 13.7957 12.2153 13.7781 12.0686 13.6989C11.922 13.6198 11.8128 13.4856 11.765 13.326C11.7173 13.1663 11.7349 12.9942 11.8141 12.8476C11.8932 12.7009 12.0274 12.5917 12.187 12.544L14.479 11.858C14.811 11.758 15.16 11.948 15.26 12.28ZM19.367 14.452C19.4485 14.4651 19.5265 14.4941 19.5967 14.5374C19.6669 14.5807 19.7279 14.6374 19.7762 14.7043C19.8245 14.7711 19.8591 14.8468 19.8781 14.9271C19.8971 15.0073 19.9002 15.0906 19.887 15.172L19.505 17.535C19.4785 17.6994 19.3878 17.8466 19.2527 17.9441C19.1177 18.0416 18.9495 18.0815 18.785 18.055C18.6206 18.0285 18.4734 17.9377 18.3759 17.8027C18.2784 17.6676 18.2385 17.4994 18.265 17.335L18.647 14.972C18.6602 14.8906 18.6892 14.8125 18.7325 14.7423C18.7758 14.6721 18.8325 14.6111 18.8993 14.5629C18.9662 14.5146 19.0419 14.4799 19.1222 14.4609C19.2024 14.4419 19.2856 14.4388 19.367 14.452ZM15.027 20.47C15.0857 20.5281 15.1552 20.5741 15.2316 20.6053C15.308 20.6366 15.3898 20.6525 15.4724 20.6521C15.5549 20.6517 15.6366 20.6351 15.7127 20.6032C15.7888 20.5712 15.8579 20.5246 15.916 20.466C15.9742 20.4073 16.0201 20.3378 16.0514 20.2614C16.0826 20.185 16.0985 20.1032 16.0982 20.0206C16.0978 19.9381 16.0812 19.8564 16.0492 19.7803C16.0173 19.7042 15.9707 19.6351 15.912 19.577L14.212 17.893C14.0931 17.7789 13.9341 17.7161 13.7694 17.7182C13.6046 17.7203 13.4472 17.787 13.3312 17.9041C13.2152 18.0211 13.1499 18.1791 13.1493 18.3439C13.1487 18.5087 13.2129 18.6671 13.328 18.785L15.027 20.47Z" fill="#44911B"/>
<path d="M17.053 12.593C17.1771 12.717 17.3454 12.7866 17.5209 12.7865C17.6077 12.7865 17.6937 12.7693 17.774 12.736C17.8542 12.7027 17.9271 12.654 17.9885 12.5925C18.0499 12.531 18.0986 12.4581 18.1318 12.3778C18.165 12.2975 18.1821 12.2115 18.182 12.1246C18.182 12.0378 18.1648 11.9518 18.1315 11.8715C18.0982 11.7913 18.0495 11.7184 17.988 11.657C17.8639 11.533 17.6956 11.4634 17.5202 11.4635C17.3447 11.4636 17.1765 11.5334 17.0525 11.6575C16.9285 11.7816 16.8589 11.9499 16.859 12.1254C16.8591 12.3008 16.9289 12.469 17.053 12.593ZM18.323 20.632C18.384 20.6956 18.457 20.7464 18.5379 20.7814C18.6188 20.8164 18.7058 20.8349 18.7939 20.8359C18.882 20.8368 18.9694 20.8201 19.051 20.7868C19.1326 20.7535 19.2067 20.7043 19.269 20.642C19.3313 20.5797 19.3806 20.5056 19.4139 20.424C19.4471 20.3424 19.4638 20.255 19.4629 20.1669C19.4619 20.0788 19.4434 19.9918 19.4084 19.9109C19.3734 19.83 19.3226 19.757 19.259 19.696C19.134 19.5762 18.9671 19.5101 18.7939 19.5119C18.6208 19.5138 18.4552 19.5834 18.3328 19.7058C18.2104 19.8282 18.1408 19.9938 18.1389 20.1669C18.1371 20.34 18.2032 20.507 18.323 20.632ZM11.36 17.801C11.2998 17.8676 11.2268 17.9213 11.1452 17.9588C11.0636 17.9963 10.9753 18.0168 10.8856 18.0191C10.7958 18.0214 10.7065 18.0054 10.6232 17.9721C10.5398 17.9388 10.4641 17.8889 10.4006 17.8254C10.3371 17.7619 10.2872 17.6862 10.2539 17.6028C10.2207 17.5195 10.2047 17.4302 10.2069 17.3405C10.2092 17.2507 10.2297 17.1624 10.2672 17.0808C10.3047 16.9993 10.3584 16.9262 10.425 16.866C10.5506 16.7497 10.7163 16.6866 10.8873 16.6898C11.0584 16.6931 11.2216 16.7624 11.3427 16.8834C11.4637 17.0043 11.5333 17.1674 11.5367 17.3385C11.5401 17.5096 11.4771 17.6753 11.361 17.801H11.36Z" fill="#F8312F"/>
</svg>
