<svg width="33" height="33" viewBox="0 0 33 33" fill="none" xmlns="http://www.w3.org/2000/svg">
<path d="M28.5643 20.6637L22.4748 17.9348C22.1989 17.8165 21.8979 17.769 21.5989 17.7965C21.3 17.8239 21.0127 17.9255 20.7629 18.092C20.7376 18.1083 20.7135 18.1264 20.6907 18.1462L17.508 20.8532C17.475 20.8712 17.4383 20.8813 17.4007 20.8826C17.3631 20.884 17.3257 20.8765 17.2915 20.8609C15.2457 19.8735 13.1265 17.7672 12.1352 15.7498C12.1187 15.7161 12.1101 15.6791 12.1101 15.6415C12.1101 15.604 12.1187 15.567 12.1352 15.5332L14.8513 12.3106C14.8708 12.2867 14.8889 12.2618 14.9054 12.2358C15.0696 11.9851 15.1688 11.6974 15.194 11.3988C15.2192 11.1002 15.1697 10.7999 15.0498 10.5252L12.3402 4.44602C12.1863 4.08716 11.9202 3.78788 11.5818 3.59311C11.2434 3.39833 10.8509 3.31857 10.4633 3.36579C8.77881 3.58724 7.23256 4.41449 6.11354 5.69293C4.99451 6.97137 4.37928 8.61354 4.38281 10.3125C4.38281 20.4059 12.5941 28.6172 22.6875 28.6172C24.3864 28.6205 26.0284 28.0052 27.3068 26.8862C28.5852 25.7672 29.4125 24.2211 29.6343 22.5367C29.6814 22.1509 29.6027 21.7603 29.4099 21.4228C29.2171 21.0853 28.9206 20.8191 28.5643 20.6637ZM22.6875 27.0704C13.4475 27.0704 5.92969 19.5525 5.92969 10.3125C5.92538 8.98987 6.40278 7.71088 7.27269 6.71452C8.1426 5.71817 9.34552 5.07262 10.6567 4.89848H10.6863C10.7383 4.89945 10.7887 4.91609 10.831 4.94623C10.8734 4.97636 10.9056 5.01858 10.9235 5.06735L13.6434 11.1401C13.6589 11.1739 13.667 11.2106 13.667 11.2478C13.667 11.2849 13.6589 11.3216 13.6434 11.3554L10.9222 14.5858C10.9019 14.6088 10.8834 14.6334 10.8668 14.6593C10.6965 14.9192 10.5962 15.2187 10.5757 15.5288C10.5551 15.8389 10.615 16.149 10.7495 16.4291C11.8929 18.7701 14.2519 21.111 16.6186 22.2544C16.9004 22.3882 17.212 22.4466 17.5231 22.424C17.8342 22.4014 18.1341 22.2986 18.3936 22.1255C18.4181 22.1088 18.4426 22.0907 18.4658 22.0714L21.6472 19.3643C21.6786 19.3475 21.7133 19.3376 21.7489 19.3353C21.7845 19.3331 21.8202 19.3386 21.8535 19.3514L27.9443 22.0804C27.994 22.1016 28.0359 22.1379 28.0639 22.1841C28.0919 22.2304 28.1046 22.2843 28.1003 22.3382C27.9271 23.65 27.2821 24.8538 26.286 25.7247C25.2898 26.5955 24.0107 27.0739 22.6875 27.0704Z" fill="white"/>
</svg>
